<svg width="80" height="80" viewBox="0 0 80 80" fill="none" xmlns="http://www.w3.org/2000/svg">
<path d="M25 22.5C24.337 22.5 23.7011 22.2366 23.2322 21.7678C22.7634 21.2989 22.5 20.663 22.5 20V10C22.5 9.33696 22.7634 8.70107 23.2322 8.23223C23.7011 7.76339 24.337 7.5 25 7.5C25.663 7.5 26.2989 7.76339 26.7678 8.23223C27.2366 8.70107 27.5 9.33696 27.5 10V20C27.5 20.663 27.2366 21.2989 26.7678 21.7678C26.2989 22.2366 25.663 22.5 25 22.5ZM55 22.5C54.337 22.5 53.7011 22.2366 53.2322 21.7678C52.7634 21.2989 52.5 20.663 52.5 20V10C52.5 9.33696 52.7634 8.70107 53.2322 8.23223C53.7011 7.76339 54.337 7.5 55 7.5C55.663 7.5 56.2989 7.76339 56.7678 8.23223C57.2366 8.70107 57.5 9.33696 57.5 10V20C57.5 20.663 57.2366 21.2989 56.7678 21.7678C56.2989 22.2366 55.663 22.5 55 22.5Z" fill="#1F2937"/>
<path d="M25 22.5C24.337 22.5 23.7011 22.2366 23.2322 21.7678C22.7634 21.2989 22.5 20.663 22.5 20V10C22.5 9.33696 22.7634 8.70107 23.2322 8.23223C23.7011 7.76339 24.337 7.5 25 7.5C25.663 7.5 26.2989 7.76339 26.7678 8.23223C27.2366 8.70107 27.5 9.33696 27.5 10V20C27.5 20.663 27.2366 21.2989 26.7678 21.7678C26.2989 22.2366 25.663 22.5 25 22.5ZM55 22.5C54.337 22.5 53.7011 22.2366 53.2322 21.7678C52.7634 21.2989 52.5 20.663 52.5 20V10C52.5 9.33696 52.7634 8.70107 53.2322 8.23223C53.7011 7.76339 54.337 7.5 55 7.5C55.663 7.5 56.2989 7.76339 56.7678 8.23223C57.2366 8.70107 57.5 9.33696 57.5 10V20C57.5 20.663 57.2366 21.2989 56.7678 21.7678C56.2989 22.2366 55.663 22.5 55 22.5Z" fill="black" fill-opacity="0.2"/>
<path d="M25 22.5C24.337 22.5 23.7011 22.2366 23.2322 21.7678C22.7634 21.2989 22.5 20.663 22.5 20V10C22.5 9.33696 22.7634 8.70107 23.2322 8.23223C23.7011 7.76339 24.337 7.5 25 7.5C25.663 7.5 26.2989 7.76339 26.7678 8.23223C27.2366 8.70107 27.5 9.33696 27.5 10V20C27.5 20.663 27.2366 21.2989 26.7678 21.7678C26.2989 22.2366 25.663 22.5 25 22.5ZM55 22.5C54.337 22.5 53.7011 22.2366 53.2322 21.7678C52.7634 21.2989 52.5 20.663 52.5 20V10C52.5 9.33696 52.7634 8.70107 53.2322 8.23223C53.7011 7.76339 54.337 7.5 55 7.5C55.663 7.5 56.2989 7.76339 56.7678 8.23223C57.2366 8.70107 57.5 9.33696 57.5 10V20C57.5 20.663 57.2366 21.2989 56.7678 21.7678C56.2989 22.2366 55.663 22.5 55 22.5Z" fill="black" fill-opacity="0.2"/>
<path d="M25 22.5C24.337 22.5 23.7011 22.2366 23.2322 21.7678C22.7634 21.2989 22.5 20.663 22.5 20V10C22.5 9.33696 22.7634 8.70107 23.2322 8.23223C23.7011 7.76339 24.337 7.5 25 7.5C25.663 7.5 26.2989 7.76339 26.7678 8.23223C27.2366 8.70107 27.5 9.33696 27.5 10V20C27.5 20.663 27.2366 21.2989 26.7678 21.7678C26.2989 22.2366 25.663 22.5 25 22.5ZM55 22.5C54.337 22.5 53.7011 22.2366 53.2322 21.7678C52.7634 21.2989 52.5 20.663 52.5 20V10C52.5 9.33696 52.7634 8.70107 53.2322 8.23223C53.7011 7.76339 54.337 7.5 55 7.5C55.663 7.5 56.2989 7.76339 56.7678 8.23223C57.2366 8.70107 57.5 9.33696 57.5 10V20C57.5 20.663 57.2366 21.2989 56.7678 21.7678C56.2989 22.2366 55.663 22.5 55 22.5Z" fill="black" fill-opacity="0.2"/>
<path d="M25 22.5C24.337 22.5 23.7011 22.2366 23.2322 21.7678C22.7634 21.2989 22.5 20.663 22.5 20V10C22.5 9.33696 22.7634 8.70107 23.2322 8.23223C23.7011 7.76339 24.337 7.5 25 7.5C25.663 7.5 26.2989 7.76339 26.7678 8.23223C27.2366 8.70107 27.5 9.33696 27.5 10V20C27.5 20.663 27.2366 21.2989 26.7678 21.7678C26.2989 22.2366 25.663 22.5 25 22.5ZM55 22.5C54.337 22.5 53.7011 22.2366 53.2322 21.7678C52.7634 21.2989 52.5 20.663 52.5 20V10C52.5 9.33696 52.7634 8.70107 53.2322 8.23223C53.7011 7.76339 54.337 7.5 55 7.5C55.663 7.5 56.2989 7.76339 56.7678 8.23223C57.2366 8.70107 57.5 9.33696 57.5 10V20C57.5 20.663 57.2366 21.2989 56.7678 21.7678C56.2989 22.2366 55.663 22.5 55 22.5Z" fill="black" fill-opacity="0.2"/>
<path d="M65 72.5H15C10.865 72.5 7.5 69.135 7.5 65V20C7.5 15.865 10.865 12.5 15 12.5H65C69.135 12.5 72.5 15.865 72.5 20V65C72.5 69.135 69.135 72.5 65 72.5ZM15 17.5C14.337 17.5 13.7011 17.7634 13.2322 18.2322C12.7634 18.7011 12.5 19.337 12.5 20V65C12.5 65.663 12.7634 66.2989 13.2322 66.7678C13.7011 67.2366 14.337 67.5 15 67.5H65C65.663 67.5 66.2989 67.2366 66.7678 66.7678C67.2366 66.2989 67.5 65.663 67.5 65V20C67.5 19.337 67.2366 18.7011 66.7678 18.2322C66.2989 17.7634 65.663 17.5 65 17.5H15Z" fill="#1F2937"/>
<path d="M65 72.5H15C10.865 72.5 7.5 69.135 7.5 65V20C7.5 15.865 10.865 12.5 15 12.5H65C69.135 12.5 72.5 15.865 72.5 20V65C72.5 69.135 69.135 72.5 65 72.5ZM15 17.5C14.337 17.5 13.7011 17.7634 13.2322 18.2322C12.7634 18.7011 12.5 19.337 12.5 20V65C12.5 65.663 12.7634 66.2989 13.2322 66.7678C13.7011 67.2366 14.337 67.5 15 67.5H65C65.663 67.5 66.2989 67.2366 66.7678 66.7678C67.2366 66.2989 67.5 65.663 67.5 65V20C67.5 19.337 67.2366 18.7011 66.7678 18.2322C66.2989 17.7634 65.663 17.5 65 17.5H15Z" fill="black" fill-opacity="0.2"/>
<path d="M65 72.5H15C10.865 72.5 7.5 69.135 7.5 65V20C7.5 15.865 10.865 12.5 15 12.5H65C69.135 12.5 72.5 15.865 72.5 20V65C72.5 69.135 69.135 72.5 65 72.5ZM15 17.5C14.337 17.5 13.7011 17.7634 13.2322 18.2322C12.7634 18.7011 12.5 19.337 12.5 20V65C12.5 65.663 12.7634 66.2989 13.2322 66.7678C13.7011 67.2366 14.337 67.5 15 67.5H65C65.663 67.5 66.2989 67.2366 66.7678 66.7678C67.2366 66.2989 67.5 65.663 67.5 65V20C67.5 19.337 67.2366 18.7011 66.7678 18.2322C66.2989 17.7634 65.663 17.5 65 17.5H15Z" fill="black" fill-opacity="0.2"/>
<path d="M65 72.5H15C10.865 72.5 7.5 69.135 7.5 65V20C7.5 15.865 10.865 12.5 15 12.5H65C69.135 12.5 72.5 15.865 72.5 20V65C72.5 69.135 69.135 72.5 65 72.5ZM15 17.5C14.337 17.5 13.7011 17.7634 13.2322 18.2322C12.7634 18.7011 12.5 19.337 12.5 20V65C12.5 65.663 12.7634 66.2989 13.2322 66.7678C13.7011 67.2366 14.337 67.5 15 67.5H65C65.663 67.5 66.2989 67.2366 66.7678 66.7678C67.2366 66.2989 67.5 65.663 67.5 65V20C67.5 19.337 67.2366 18.7011 66.7678 18.2322C66.2989 17.7634 65.663 17.5 65 17.5H15Z" fill="black" fill-opacity="0.2"/>
<path d="M65 72.5H15C10.865 72.5 7.5 69.135 7.5 65V20C7.5 15.865 10.865 12.5 15 12.5H65C69.135 12.5 72.5 15.865 72.5 20V65C72.5 69.135 69.135 72.5 65 72.5ZM15 17.5C14.337 17.5 13.7011 17.7634 13.2322 18.2322C12.7634 18.7011 12.5 19.337 12.5 20V65C12.5 65.663 12.7634 66.2989 13.2322 66.7678C13.7011 67.2366 14.337 67.5 15 67.5H65C65.663 67.5 66.2989 67.2366 66.7678 66.7678C67.2366 66.2989 67.5 65.663 67.5 65V20C67.5 19.337 67.2366 18.7011 66.7678 18.2322C66.2989 17.7634 65.663 17.5 65 17.5H15Z" fill="black" fill-opacity="0.2"/>
<path d="M70 32.5H10C9.33696 32.5 8.70107 32.2366 8.23223 31.7678C7.76339 31.2989 7.5 30.663 7.5 30C7.5 29.337 7.76339 28.7011 8.23223 28.2322C8.70107 27.7634 9.33696 27.5 10 27.5H70C70.663 27.5 71.2989 27.7634 71.7678 28.2322C72.2366 28.7011 72.5 29.337 72.5 30C72.5 30.663 72.2366 31.2989 71.7678 31.7678C71.2989 32.2366 70.663 32.5 70 32.5ZM27.5 37.5H32.5V42.5H27.5V37.5ZM37.5 37.5H42.5V42.5H37.5V37.5ZM47.5 37.5H52.5V42.5H47.5V37.5ZM57.5 37.5H62.5V42.5H57.5V37.5ZM17.5 47.5H22.5V52.5H17.5V47.5ZM27.5 47.5H32.5V52.5H27.5V47.5ZM37.5 47.5H42.5V52.5H37.5V47.5ZM47.5 47.5H52.5V52.5H47.5V47.5ZM57.5 47.5H62.5V52.5H57.5V47.5ZM17.5 57.5H22.5V62.5H17.5V57.5ZM27.5 57.5H32.5V62.5H27.5V57.5ZM37.5 57.5H42.5V62.5H37.5V57.5Z" fill="#1F2937"/>
<path d="M70 32.5H10C9.33696 32.5 8.70107 32.2366 8.23223 31.7678C7.76339 31.2989 7.5 30.663 7.5 30C7.5 29.337 7.76339 28.7011 8.23223 28.2322C8.70107 27.7634 9.33696 27.5 10 27.5H70C70.663 27.5 71.2989 27.7634 71.7678 28.2322C72.2366 28.7011 72.5 29.337 72.5 30C72.5 30.663 72.2366 31.2989 71.7678 31.7678C71.2989 32.2366 70.663 32.5 70 32.5ZM27.5 37.5H32.5V42.5H27.5V37.5ZM37.5 37.5H42.5V42.5H37.5V37.5ZM47.5 37.5H52.5V42.5H47.5V37.5ZM57.5 37.5H62.5V42.5H57.5V37.5ZM17.5 47.5H22.5V52.5H17.5V47.5ZM27.5 47.5H32.5V52.5H27.5V47.5ZM37.5 47.5H42.5V52.5H37.5V47.5ZM47.5 47.5H52.5V52.5H47.5V47.5ZM57.5 47.5H62.5V52.5H57.5V47.5ZM17.5 57.5H22.5V62.5H17.5V57.5ZM27.5 57.5H32.5V62.5H27.5V57.5ZM37.5 57.5H42.5V62.5H37.5V57.5Z" fill="black" fill-opacity="0.2"/>
<path d="M70 32.5H10C9.33696 32.5 8.70107 32.2366 8.23223 31.7678C7.76339 31.2989 7.5 30.663 7.5 30C7.5 29.337 7.76339 28.7011 8.23223 28.2322C8.70107 27.7634 9.33696 27.5 10 27.5H70C70.663 27.5 71.2989 27.7634 71.7678 28.2322C72.2366 28.7011 72.5 29.337 72.5 30C72.5 30.663 72.2366 31.2989 71.7678 31.7678C71.2989 32.2366 70.663 32.5 70 32.5ZM27.5 37.5H32.5V42.5H27.5V37.5ZM37.5 37.5H42.5V42.5H37.5V37.5ZM47.5 37.5H52.5V42.5H47.5V37.5ZM57.5 37.5H62.5V42.5H57.5V37.5ZM17.5 47.5H22.5V52.5H17.5V47.5ZM27.5 47.5H32.5V52.5H27.5V47.5ZM37.5 47.5H42.5V52.5H37.5V47.5ZM47.5 47.5H52.5V52.5H47.5V47.5ZM57.5 47.5H62.5V52.5H57.5V47.5ZM17.5 57.5H22.5V62.5H17.5V57.5ZM27.5 57.5H32.5V62.5H27.5V57.5ZM37.5 57.5H42.5V62.5H37.5V57.5Z" fill="black" fill-opacity="0.2"/>
<path d="M70 32.5H10C9.33696 32.5 8.70107 32.2366 8.23223 31.7678C7.76339 31.2989 7.5 30.663 7.5 30C7.5 29.337 7.76339 28.7011 8.23223 28.2322C8.70107 27.7634 9.33696 27.5 10 27.5H70C70.663 27.5 71.2989 27.7634 71.7678 28.2322C72.2366 28.7011 72.5 29.337 72.5 30C72.5 30.663 72.2366 31.2989 71.7678 31.7678C71.2989 32.2366 70.663 32.5 70 32.5ZM27.5 37.5H32.5V42.5H27.5V37.5ZM37.5 37.5H42.5V42.5H37.5V37.5ZM47.5 37.5H52.5V42.5H47.5V37.5ZM57.5 37.5H62.5V42.5H57.5V37.5ZM17.5 47.5H22.5V52.5H17.5V47.5ZM27.5 47.5H32.5V52.5H27.5V47.5ZM37.5 47.5H42.5V52.5H37.5V47.5ZM47.5 47.5H52.5V52.5H47.5V47.5ZM57.5 47.5H62.5V52.5H57.5V47.5ZM17.5 57.5H22.5V62.5H17.5V57.5ZM27.5 57.5H32.5V62.5H27.5V57.5ZM37.5 57.5H42.5V62.5H37.5V57.5Z" fill="black" fill-opacity="0.2"/>
<path d="M70 32.5H10C9.33696 32.5 8.70107 32.2366 8.23223 31.7678C7.76339 31.2989 7.5 30.663 7.5 30C7.5 29.337 7.76339 28.7011 8.23223 28.2322C8.70107 27.7634 9.33696 27.5 10 27.5H70C70.663 27.5 71.2989 27.7634 71.7678 28.2322C72.2366 28.7011 72.5 29.337 72.5 30C72.5 30.663 72.2366 31.2989 71.7678 31.7678C71.2989 32.2366 70.663 32.5 70 32.5ZM27.5 37.5H32.5V42.5H27.5V37.5ZM37.5 37.5H42.5V42.5H37.5V37.5ZM47.5 37.5H52.5V42.5H47.5V37.5ZM57.5 37.5H62.5V42.5H57.5V37.5ZM17.5 47.5H22.5V52.5H17.5V47.5ZM27.5 47.5H32.5V52.5H27.5V47.5ZM37.5 47.5H42.5V52.5H37.5V47.5ZM47.5 47.5H52.5V52.5H47.5V47.5ZM57.5 47.5H62.5V52.5H57.5V47.5ZM17.5 57.5H22.5V62.5H17.5V57.5ZM27.5 57.5H32.5V62.5H27.5V57.5ZM37.5 57.5H42.5V62.5H37.5V57.5Z" fill="black" fill-opacity="0.2"/>
</svg>
