<svg width="80" height="80" viewBox="0 0 80 80" fill="none" xmlns="http://www.w3.org/2000/svg">
<path d="M39.9997 35.9996C41.3182 35.9996 42.6071 35.6087 43.7035 34.8761C44.7998 34.1436 45.6543 33.1024 46.1589 31.8842C46.6635 30.666 46.7955 29.3256 46.5382 28.0324C46.281 26.7392 45.6461 25.5513 44.7137 24.6189C43.7814 23.6866 42.5935 23.0516 41.3003 22.7944C40.0071 22.5372 38.6666 22.6692 37.4485 23.1738C36.2303 23.6784 35.1891 24.5328 34.4565 25.6292C33.724 26.7255 33.333 28.0144 33.333 29.333C33.333 31.1011 34.0354 32.7968 35.2856 34.047C36.5359 35.2973 38.2316 35.9996 39.9997 35.9996ZM37.633 59.033C37.9429 59.3454 38.3116 59.5934 38.7178 59.7626C39.1239 59.9318 39.5596 60.019 39.9997 60.019C40.4397 60.019 40.8754 59.9318 41.2816 59.7626C41.6878 59.5934 42.0565 59.3454 42.3663 59.033L55.9997 45.3663C59.1662 42.2015 61.323 38.1686 62.1973 33.7778C63.0715 29.3871 62.624 24.8357 60.9113 20.6993C59.1986 16.5629 56.2976 13.0273 52.5753 10.5398C48.853 8.05233 44.4766 6.72461 39.9997 6.72461C35.5227 6.72461 31.1463 8.05233 27.424 10.5398C23.7017 13.0273 20.8008 16.5629 19.0881 20.6993C17.3754 24.8357 16.9278 29.3871 17.8021 33.7778C18.6764 38.1686 20.8332 42.2015 23.9997 45.3663L37.633 59.033ZM24.0997 27.7996C24.3274 25.423 25.0831 23.1273 26.3114 21.08C27.5398 19.0328 29.2098 17.2857 31.1997 15.9663C33.8137 14.25 36.8726 13.3355 39.9997 13.3355C43.1268 13.3355 46.1857 14.25 48.7997 15.9663C50.7762 17.2811 52.4368 19.0176 53.6621 21.0509C54.8874 23.0842 55.6468 25.3637 55.8859 27.7256C56.125 30.0875 55.8376 32.4729 55.0446 34.7105C54.2517 36.9481 52.9727 38.9821 51.2997 40.6663L39.9997 51.9663L28.6997 40.6663C27.0247 38.9984 25.7428 36.9781 24.947 34.7523C24.1513 32.5266 23.8618 30.1514 24.0997 27.7996ZM63.333 66.6663H16.6663C15.7823 66.6663 14.9344 67.0175 14.3093 67.6426C13.6842 68.2677 13.333 69.1156 13.333 69.9996C13.333 70.8837 13.6842 71.7316 14.3093 72.3567C14.9344 72.9818 15.7823 73.333 16.6663 73.333H63.333C64.2171 73.333 65.0649 72.9818 65.69 72.3567C66.3152 71.7316 66.6663 70.8837 66.6663 69.9996C66.6663 69.1156 66.3152 68.2677 65.69 67.6426C65.0649 67.0175 64.2171 66.6663 63.333 66.6663Z" fill="#1F2937"/>
<path d="M39.9997 35.9996C41.3182 35.9996 42.6071 35.6087 43.7035 34.8761C44.7998 34.1436 45.6543 33.1024 46.1589 31.8842C46.6635 30.666 46.7955 29.3256 46.5382 28.0324C46.281 26.7392 45.6461 25.5513 44.7137 24.6189C43.7814 23.6866 42.5935 23.0516 41.3003 22.7944C40.0071 22.5372 38.6666 22.6692 37.4485 23.1738C36.2303 23.6784 35.1891 24.5328 34.4565 25.6292C33.724 26.7255 33.333 28.0144 33.333 29.333C33.333 31.1011 34.0354 32.7968 35.2856 34.047C36.5359 35.2973 38.2316 35.9996 39.9997 35.9996ZM37.633 59.033C37.9429 59.3454 38.3116 59.5934 38.7178 59.7626C39.1239 59.9318 39.5596 60.019 39.9997 60.019C40.4397 60.019 40.8754 59.9318 41.2816 59.7626C41.6878 59.5934 42.0565 59.3454 42.3663 59.033L55.9997 45.3663C59.1662 42.2015 61.323 38.1686 62.1973 33.7778C63.0715 29.3871 62.624 24.8357 60.9113 20.6993C59.1986 16.5629 56.2976 13.0273 52.5753 10.5398C48.853 8.05233 44.4766 6.72461 39.9997 6.72461C35.5227 6.72461 31.1463 8.05233 27.424 10.5398C23.7017 13.0273 20.8008 16.5629 19.0881 20.6993C17.3754 24.8357 16.9278 29.3871 17.8021 33.7778C18.6764 38.1686 20.8332 42.2015 23.9997 45.3663L37.633 59.033ZM24.0997 27.7996C24.3274 25.423 25.0831 23.1273 26.3114 21.08C27.5398 19.0328 29.2098 17.2857 31.1997 15.9663C33.8137 14.25 36.8726 13.3355 39.9997 13.3355C43.1268 13.3355 46.1857 14.25 48.7997 15.9663C50.7762 17.2811 52.4368 19.0176 53.6621 21.0509C54.8874 23.0842 55.6468 25.3637 55.8859 27.7256C56.125 30.0875 55.8376 32.4729 55.0446 34.7105C54.2517 36.9481 52.9727 38.9821 51.2997 40.6663L39.9997 51.9663L28.6997 40.6663C27.0247 38.9984 25.7428 36.9781 24.947 34.7523C24.1513 32.5266 23.8618 30.1514 24.0997 27.7996ZM63.333 66.6663H16.6663C15.7823 66.6663 14.9344 67.0175 14.3093 67.6426C13.6842 68.2677 13.333 69.1156 13.333 69.9996C13.333 70.8837 13.6842 71.7316 14.3093 72.3567C14.9344 72.9818 15.7823 73.333 16.6663 73.333H63.333C64.2171 73.333 65.0649 72.9818 65.69 72.3567C66.3152 71.7316 66.6663 70.8837 66.6663 69.9996C66.6663 69.1156 66.3152 68.2677 65.69 67.6426C65.0649 67.0175 64.2171 66.6663 63.333 66.6663Z" fill="black" fill-opacity="0.2"/>
<path d="M39.9997 35.9996C41.3182 35.9996 42.6071 35.6087 43.7035 34.8761C44.7998 34.1436 45.6543 33.1024 46.1589 31.8842C46.6635 30.666 46.7955 29.3256 46.5382 28.0324C46.281 26.7392 45.6461 25.5513 44.7137 24.6189C43.7814 23.6866 42.5935 23.0516 41.3003 22.7944C40.0071 22.5372 38.6666 22.6692 37.4485 23.1738C36.2303 23.6784 35.1891 24.5328 34.4565 25.6292C33.724 26.7255 33.333 28.0144 33.333 29.333C33.333 31.1011 34.0354 32.7968 35.2856 34.047C36.5359 35.2973 38.2316 35.9996 39.9997 35.9996ZM37.633 59.033C37.9429 59.3454 38.3116 59.5934 38.7178 59.7626C39.1239 59.9318 39.5596 60.019 39.9997 60.019C40.4397 60.019 40.8754 59.9318 41.2816 59.7626C41.6878 59.5934 42.0565 59.3454 42.3663 59.033L55.9997 45.3663C59.1662 42.2015 61.323 38.1686 62.1973 33.7778C63.0715 29.3871 62.624 24.8357 60.9113 20.6993C59.1986 16.5629 56.2976 13.0273 52.5753 10.5398C48.853 8.05233 44.4766 6.72461 39.9997 6.72461C35.5227 6.72461 31.1463 8.05233 27.424 10.5398C23.7017 13.0273 20.8008 16.5629 19.0881 20.6993C17.3754 24.8357 16.9278 29.3871 17.8021 33.7778C18.6764 38.1686 20.8332 42.2015 23.9997 45.3663L37.633 59.033ZM24.0997 27.7996C24.3274 25.423 25.0831 23.1273 26.3114 21.08C27.5398 19.0328 29.2098 17.2857 31.1997 15.9663C33.8137 14.25 36.8726 13.3355 39.9997 13.3355C43.1268 13.3355 46.1857 14.25 48.7997 15.9663C50.7762 17.2811 52.4368 19.0176 53.6621 21.0509C54.8874 23.0842 55.6468 25.3637 55.8859 27.7256C56.125 30.0875 55.8376 32.4729 55.0446 34.7105C54.2517 36.9481 52.9727 38.9821 51.2997 40.6663L39.9997 51.9663L28.6997 40.6663C27.0247 38.9984 25.7428 36.9781 24.947 34.7523C24.1513 32.5266 23.8618 30.1514 24.0997 27.7996ZM63.333 66.6663H16.6663C15.7823 66.6663 14.9344 67.0175 14.3093 67.6426C13.6842 68.2677 13.333 69.1156 13.333 69.9996C13.333 70.8837 13.6842 71.7316 14.3093 72.3567C14.9344 72.9818 15.7823 73.333 16.6663 73.333H63.333C64.2171 73.333 65.0649 72.9818 65.69 72.3567C66.3152 71.7316 66.6663 70.8837 66.6663 69.9996C66.6663 69.1156 66.3152 68.2677 65.69 67.6426C65.0649 67.0175 64.2171 66.6663 63.333 66.6663Z" fill="black" fill-opacity="0.2"/>
<path d="M39.9997 35.9996C41.3182 35.9996 42.6071 35.6087 43.7035 34.8761C44.7998 34.1436 45.6543 33.1024 46.1589 31.8842C46.6635 30.666 46.7955 29.3256 46.5382 28.0324C46.281 26.7392 45.6461 25.5513 44.7137 24.6189C43.7814 23.6866 42.5935 23.0516 41.3003 22.7944C40.0071 22.5372 38.6666 22.6692 37.4485 23.1738C36.2303 23.6784 35.1891 24.5328 34.4565 25.6292C33.724 26.7255 33.333 28.0144 33.333 29.333C33.333 31.1011 34.0354 32.7968 35.2856 34.047C36.5359 35.2973 38.2316 35.9996 39.9997 35.9996ZM37.633 59.033C37.9429 59.3454 38.3116 59.5934 38.7178 59.7626C39.1239 59.9318 39.5596 60.019 39.9997 60.019C40.4397 60.019 40.8754 59.9318 41.2816 59.7626C41.6878 59.5934 42.0565 59.3454 42.3663 59.033L55.9997 45.3663C59.1662 42.2015 61.323 38.1686 62.1973 33.7778C63.0715 29.3871 62.624 24.8357 60.9113 20.6993C59.1986 16.5629 56.2976 13.0273 52.5753 10.5398C48.853 8.05233 44.4766 6.72461 39.9997 6.72461C35.5227 6.72461 31.1463 8.05233 27.424 10.5398C23.7017 13.0273 20.8008 16.5629 19.0881 20.6993C17.3754 24.8357 16.9278 29.3871 17.8021 33.7778C18.6764 38.1686 20.8332 42.2015 23.9997 45.3663L37.633 59.033ZM24.0997 27.7996C24.3274 25.423 25.0831 23.1273 26.3114 21.08C27.5398 19.0328 29.2098 17.2857 31.1997 15.9663C33.8137 14.25 36.8726 13.3355 39.9997 13.3355C43.1268 13.3355 46.1857 14.25 48.7997 15.9663C50.7762 17.2811 52.4368 19.0176 53.6621 21.0509C54.8874 23.0842 55.6468 25.3637 55.8859 27.7256C56.125 30.0875 55.8376 32.4729 55.0446 34.7105C54.2517 36.9481 52.9727 38.9821 51.2997 40.6663L39.9997 51.9663L28.6997 40.6663C27.0247 38.9984 25.7428 36.9781 24.947 34.7523C24.1513 32.5266 23.8618 30.1514 24.0997 27.7996ZM63.333 66.6663H16.6663C15.7823 66.6663 14.9344 67.0175 14.3093 67.6426C13.6842 68.2677 13.333 69.1156 13.333 69.9996C13.333 70.8837 13.6842 71.7316 14.3093 72.3567C14.9344 72.9818 15.7823 73.333 16.6663 73.333H63.333C64.2171 73.333 65.0649 72.9818 65.69 72.3567C66.3152 71.7316 66.6663 70.8837 66.6663 69.9996C66.6663 69.1156 66.3152 68.2677 65.69 67.6426C65.0649 67.0175 64.2171 66.6663 63.333 66.6663Z" fill="black" fill-opacity="0.2"/>
<path d="M39.9997 35.9996C41.3182 35.9996 42.6071 35.6087 43.7035 34.8761C44.7998 34.1436 45.6543 33.1024 46.1589 31.8842C46.6635 30.666 46.7955 29.3256 46.5382 28.0324C46.281 26.7392 45.6461 25.5513 44.7137 24.6189C43.7814 23.6866 42.5935 23.0516 41.3003 22.7944C40.0071 22.5372 38.6666 22.6692 37.4485 23.1738C36.2303 23.6784 35.1891 24.5328 34.4565 25.6292C33.724 26.7255 33.333 28.0144 33.333 29.333C33.333 31.1011 34.0354 32.7968 35.2856 34.047C36.5359 35.2973 38.2316 35.9996 39.9997 35.9996ZM37.633 59.033C37.9429 59.3454 38.3116 59.5934 38.7178 59.7626C39.1239 59.9318 39.5596 60.019 39.9997 60.019C40.4397 60.019 40.8754 59.9318 41.2816 59.7626C41.6878 59.5934 42.0565 59.3454 42.3663 59.033L55.9997 45.3663C59.1662 42.2015 61.323 38.1686 62.1973 33.7778C63.0715 29.3871 62.624 24.8357 60.9113 20.6993C59.1986 16.5629 56.2976 13.0273 52.5753 10.5398C48.853 8.05233 44.4766 6.72461 39.9997 6.72461C35.5227 6.72461 31.1463 8.05233 27.424 10.5398C23.7017 13.0273 20.8008 16.5629 19.0881 20.6993C17.3754 24.8357 16.9278 29.3871 17.8021 33.7778C18.6764 38.1686 20.8332 42.2015 23.9997 45.3663L37.633 59.033ZM24.0997 27.7996C24.3274 25.423 25.0831 23.1273 26.3114 21.08C27.5398 19.0328 29.2098 17.2857 31.1997 15.9663C33.8137 14.25 36.8726 13.3355 39.9997 13.3355C43.1268 13.3355 46.1857 14.25 48.7997 15.9663C50.7762 17.2811 52.4368 19.0176 53.6621 21.0509C54.8874 23.0842 55.6468 25.3637 55.8859 27.7256C56.125 30.0875 55.8376 32.4729 55.0446 34.7105C54.2517 36.9481 52.9727 38.9821 51.2997 40.6663L39.9997 51.9663L28.6997 40.6663C27.0247 38.9984 25.7428 36.9781 24.947 34.7523C24.1513 32.5266 23.8618 30.1514 24.0997 27.7996ZM63.333 66.6663H16.6663C15.7823 66.6663 14.9344 67.0175 14.3093 67.6426C13.6842 68.2677 13.333 69.1156 13.333 69.9996C13.333 70.8837 13.6842 71.7316 14.3093 72.3567C14.9344 72.9818 15.7823 73.333 16.6663 73.333H63.333C64.2171 73.333 65.0649 72.9818 65.69 72.3567C66.3152 71.7316 66.6663 70.8837 66.6663 69.9996C66.6663 69.1156 66.3152 68.2677 65.69 67.6426C65.0649 67.0175 64.2171 66.6663 63.333 66.6663Z" fill="black" fill-opacity="0.2"/>
</svg>
