<svg width="32" height="32" viewBox="0 0 32 32" fill="none" xmlns="http://www.w3.org/2000/svg">
<path d="M23 8.00049H9C7.34387 8.00232 6.00183 9.34436 6 11.0005V21.0005C6.00183 22.6566 7.34387 23.9987 9 24.0005H23C24.6561 23.9987 25.9982 22.6566 26 21.0005V11.0005C25.9982 9.34436 24.6561 8.00232 23 8.00049ZM9 9.00049H23C23.3701 9.00098 23.7122 9.10864 24.0094 9.28406L17.0605 16.2329C16.4741 16.817 15.5259 16.817 14.9394 16.2329L7.99054 9.28406C8.28778 9.10864 8.62994 9.00098 9 9.00049ZM25 21.0005C24.9986 22.1045 24.104 22.9991 23 23.0005H9C7.896 22.9991 7.0014 22.1045 7 21.0005V11.0005C7.00049 10.6304 7.10815 10.2883 7.28357 9.99109L14.2324 16.9399C14.7008 17.4092 15.337 17.6725 16 17.6714C16.663 17.6724 17.2991 17.4092 17.7675 16.9399L24.7164 9.99103C24.8918 10.2883 24.9995 10.6304 25 11.0005V21.0005Z" fill="black"/>
</svg>
