<svg width="32" height="32" viewBox="0 0 32 32" fill="none" xmlns="http://www.w3.org/2000/svg">
<path d="M16.1124 6.00227C11.6942 5.94014 8.06207 9.47157 8 13.8898C8 19.3381 15.3643 25.6184 15.6777 25.883C15.7677 25.9595 15.882 26.0014 16 26.0012C16.118 26.0014 16.2323 25.9595 16.3223 25.883C16.6357 25.6184 24 19.3381 24 13.8898C23.9391 9.5591 20.4432 6.06312 16.1124 6.00227ZM16 24.8352C14.584 23.5637 9 18.2678 9 13.8898C9.03534 10.0565 12.1666 6.97505 16 7.00117C19.8334 6.97505 22.9647 10.0565 23 13.8898C23 18.2639 17.415 23.5627 16 24.8352ZM16 11.0012C14.3431 11.0012 13 12.3443 13 14.0012C13 15.658 14.3431 17.0012 16 17.0012C17.6561 16.9993 18.9982 15.6573 19 14.0012C19 12.3443 17.6569 11.0012 16 11.0012ZM16 16.0012C14.8954 16.0012 14 15.1057 14 14.0012C14 12.8966 14.8954 12.0012 16 12.0012C17.104 12.0026 17.9986 12.8972 18 14.0012C18 15.1057 17.1046 16.0012 16 16.0012Z" fill="black"/>
</svg>
